<?xml version="1.0" encoding="UTF-8" standalone="no"?>
<svg
   id="svg2"
   viewBox="0 0 188 188"
   version="1.1"
   sodipodi:docname="icon_view.svg"
   inkscape:version="1.3 (0e150ed6c4, 2023-07-21)"
   width="188"
   height="188"
   xmlns:inkscape="http://www.inkscape.org/namespaces/inkscape"
   xmlns:sodipodi="http://sodipodi.sourceforge.net/DTD/sodipodi-0.dtd"
   xmlns="http://www.w3.org/2000/svg"
   xmlns:svg="http://www.w3.org/2000/svg"
   xmlns:rdf="http://www.w3.org/1999/02/22-rdf-syntax-ns#"
   xmlns:cc="http://creativecommons.org/ns#"
   xmlns:dc="http://purl.org/dc/elements/1.1/">
  <defs
     id="defs1" />
  <sodipodi:namedview
     id="namedview1"
     pagecolor="#ffffff"
     bordercolor="#666666"
     borderopacity="1.0"
     inkscape:showpageshadow="2"
     inkscape:pageopacity="0.0"
     inkscape:pagecheckerboard="0"
     inkscape:deskcolor="#d1d1d1"
     inkscape:zoom="3.4692426"
     inkscape:cx="50.875657"
     inkscape:cy="118.46966"
     inkscape:window-width="1920"
     inkscape:window-height="1080"
     inkscape:window-x="0"
     inkscape:window-y="0"
     inkscape:window-maximized="1"
     inkscape:current-layer="svg2" />
  <g
     id="g3797"
     transform="matrix(0.40733211,0,0,0.65646603,-10.842647,-431.2148)">
    <path
       id="path2987"
       d="m 33.085,279.89 c 0,0 57.693,-135.96 224.35,-135.96 163.35,-1e-5 224.35,135.96 224.35,135.96 0,0 -109.55,85.296 -224.35,85.296 -112.95,0 -224.35,-85.296 -224.35,-85.296 z"
       transform="translate(0,540.36)"
       style="fill:none;fill-opacity:1;stroke:#000000;stroke-width:6.98745;stroke-dasharray:none;stroke-opacity:1" />
    <path
       id="path2987-4"
       d="m 47.863,820.53 c 0,0 60.047,-107.58 209.58,-107.58 146.56,-1e-5 209.58,107.58 209.58,107.58 0,0 -106.57,75.712 -209.58,75.712 -101.34,0 -209.58,-75.712 -209.58,-75.712 z"
       fill="#ffffff" />
    <path
       id="path3793"
       d="m 302.75,165.84 c 0,40.528 -35.95,73.382 -80.297,73.382 -44.347,0 -80.297,-32.854 -80.297,-73.382 0,-40.528 35.95,-73.382 80.297,-73.382 44.347,0 80.297,32.854 80.297,73.382 z"
       fill-rule="evenodd"
       transform="matrix(1.2803,0,0,1.4009,-27.362,568.16)"
       style="fill:#000000;fill-opacity:0.5" />
    <path
       id="path3795"
       d="m 182.11,133.18 c 0,11.882 -9.6326,21.515 -21.515,21.515 -11.8824,0 -21.515,-9.6326 -21.515,-21.515 0,-11.8824 9.6326,-21.515 21.515,-21.515 11.8824,0 21.515,9.6326 21.515,21.515 z"
       fill-rule="evenodd"
       transform="matrix(1.0714,0,0,1.0714,26.949,616.14)"
       fill="#ffffff" />
  </g>
  <metadata
     id="metadata1">
    <rdf:RDF>
      <cc:Work>
        <dc:format>image/svg+xml</dc:format>
        <dc:type
           rdf:resource="http://purl.org/dc/dcmitype/StillImage" />
        <cc:license
           rdf:resource="http://creativecommons.org/publicdomain/zero/1.0/" />
        <dc:publisher>
          <cc:Agent
             rdf:about="http://openclipart.org/">
            <dc:title>Openclipart</dc:title>
          </cc:Agent>
        </dc:publisher>
        <dc:title>Eye</dc:title>
        <dc:date>2013-11-11T01:25:34</dc:date>
        <dc:description>black-and-white stylized image of a human eye</dc:description>
        <dc:source>https://openclipart.org/detail/188640/eye-by-sumitomohiko-188640</dc:source>
        <dc:creator>
          <cc:Agent>
            <dc:title>SumiTomohiko</dc:title>
          </cc:Agent>
        </dc:creator>
        <dc:subject>
          <rdf:Bag>
            <rdf:li>eye</rdf:li>
          </rdf:Bag>
        </dc:subject>
      </cc:Work>
      <cc:License
         rdf:about="http://creativecommons.org/publicdomain/zero/1.0/">
        <cc:permits
           rdf:resource="http://creativecommons.org/ns#Reproduction" />
        <cc:permits
           rdf:resource="http://creativecommons.org/ns#Distribution" />
        <cc:permits
           rdf:resource="http://creativecommons.org/ns#DerivativeWorks" />
      </cc:License>
    </rdf:RDF>
  </metadata>
</svg>
